PathFileType	4	(X/Y/Z)	C:/Users/beibeiliu/ov580/test_trc/User2\sequence.11_training_dense_left.trc
DataRate	CameraRate	NumFrames	NumMarkers	Units	OrigDataRate	OrigDataStartFrame	OrigNumFrames
120	120	17	19	mm	120	229	366
Frame#	Time	ThumbCMC			ThumbMCP			ThumbIP			ThumbTip			IndexMCP			IndexPIP			IndexTip			MiddleMCP			MiddlePIP			MiddleTip			RingMCP			RingPIP			RingTip			PinkyMCP			PinkyPIP			PinkyTip			BackHand1			BackHand2			BackHand3	
		X0	Y0	Z0	X1	Y1	Z1	X2	Y2	Z2	X3	Y3	Z3	X4	Y4	Z4	X5	Y5	Z5	X6	Y6	Z6	X7	Y7	Z7	X8	Y8	Z8	X9	Y9	Z9	X10	Y10	Z10	X11	Y11	Z11	X12	Y12	Z12	X13	Y13	Z13	X14	Y14	Z14	X15	Y15	Z15	X16	Y16	Z16	X17	Y17	Z17	X18	Y18	Z18	
228	1.9	-184.502	-65.4511	117.305	-193.924	-94.1477	100.747	-212.1	-116.884	79.5893	-234.316	-129.536	62.1374	-219.839	-35.3333	46.7685	-224.244	-39.4249	19.8506	-234.926	-52.2409	-8.25869	-243.036	-18.6245	53.1051	-261.159	-19.991	22.0621	-279.914	-33.3489	-0.588666	-265.398	-16.0359	75.055	-279.596	-15.3479	44.8128	-294.579	-25.1529	23.6712	-278.608	-21.8947	100.338	-300.198	-13.3376	77.7988	-313.279	-12.5952	56.8628	-240.06	-15.6032	118.848	-222.356	-11.3362	146.628	-199.353	-23.294	116.361	
229	1.90833	-182.302	-62.4059	117.717	-187.324	-90.711	97.9901	-203.465	-110.694	73.2611	-227.298	-119.323	52.7922	-207.187	-27.3255	50.7747	-212.306	-28.0726	20.8528	-222.606	-36.5365	-4.70328	-233.558	-11.8594	58.1402	-249.864	-8.43275	21.0861	-269.018	-19.8135	-1.08188	-259.147	-8.92631	72.7551	-275.124	-7.08955	46.7483	-290.432	-17.7089	19.1321	-275.899	-17.322	95.6788	-291.432	-11.763	79.782	-309.188	-5.03882	57.721	-235.475	-16.5784	121.025	-223.975	-12.6419	152.166	-201.365	-19.9419	118.539	
230	1.91667	-176.06	-59.8636	118.048	-183.511	-84.1864	91.4282	-195.341	-103.243	66.1185	-216.827	-109.601	46.5452	-199.803	-17.0917	55.0997	-203.113	-14.7167	22.0121	-212.34	-20.9731	-5.93612	-229.6	-0.492243	62.0231	-237.971	4.78718	25.5158	-254.279	-7.50855	-6.04041	-247.996	-3.10635	72.4134	-265.211	3.96124	49.9548	-273.653	-4.12246	19.5801	-269.823	-13.6967	98.0987	-287.248	-3.48668	74.498	-302.864	1.94008	54.116	-232.473	-11.2821	120.705	-218.284	-14.4068	149.69	-195.532	-16.797	122.996	
231	1.925	-173.536	-56.6109	115.8	-174.691	-82.9534	88.5582	-189.276	-98.8066	62.6219	-207.351	-107.979	43.7635	-193.397	-13.1455	53.1266	-195.993	-10.4406	24.1612	-209.393	-15.9912	-7.57113	-219.854	2.71745	58.5453	-232.725	8.1569	23.9954	-248.281	-0.781713	-6.05022	-244.92	1.48742	73.2724	-261.276	7.53424	49.9138	-270.502	0.0433813	19.4939	-262.235	-13.3586	97.1067	-281.563	-2.30358	76.6589	-296.325	5.05414	59.06	-226.765	-9.61675	121.866	-215.896	-12.0442	152.149	-190.945	-15.4853	123.621	
232	1.93333	-169.085	-56.1518	115.867	-175.51	-80.1543	91.5213	-185.717	-99.747	64.8779	-204.015	-109.173	48.7419	-195.008	-14.5003	51.3063	-196.551	-14.7934	22.4151	-207.102	-22.9434	-4.09531	-223.981	0.966298	58.2782	-234.126	3.69175	24.3218	-249.842	-5.37432	-1.34192	-248.324	-0.274178	73.9845	-258.645	2.81724	48.452	-272.887	-5.39852	19.476	-261.766	-12.4799	95.7854	-283.136	-4.62263	78.3462	-298.285	1.42359	56.0386	-223.095	-12.356	124.239	-213.659	-12.337	152.977	-186.829	-15.3595	125.698	
233	1.94167	-166.467	-57.1225	120.367	-171.878	-83.6179	96.3739	-182.863	-106.705	71.3933	-208.157	-114.444	51.2927	-197.293	-23.9276	51.7444	-203.231	-25.0922	19.814	-216.893	-36.949	-4.68211	-224.652	-9.58553	58.7823	-239.411	-7.32274	27.474	-259.058	-22.6055	-2.99968	-244.359	-10.2894	75.6688	-264.536	-6.30491	50.7369	-276.915	-18.4406	18.8356	-261.363	-18.9512	98.4531	-282.936	-11.8702	76.8493	-299.578	-9.85219	61.2759	-226.745	-12.1854	123.575	-211.354	-10.5703	151.95	-188.392	-15.6487	118.842	
234	1.95	-164.517	-59.4861	116.802	-168.446	-89.5442	101.636	-182.375	-113.981	77.4404	-205.53	-123.754	66.721	-199.916	-34.3492	47.5617	-208.729	-41.9476	18.0775	-219.718	-57.9665	-3.29239	-227.603	-18.9569	53.3822	-244.489	-24.5251	22.1067	-262.087	-41.468	0.326564	-249.747	-17.6261	70.0769	-264.619	-20.616	48.5514	-282.061	-35.9588	22.8706	-260.496	-26.3491	98.2634	-283.735	-21.0525	80.8654	-300.883	-19.982	60.9741	-223.143	-15.803	118.672	-206.503	-9.37245	146.207	-185.643	-17.8766	116.779	
235	1.95833	-159.485	-58.2971	122.898	-162.387	-91.8858	104.952	-173.603	-120.38	87.6535	-198.947	-131.686	75.2809	-202.156	-44.6809	48.968	-207.144	-55.3456	23.3685	-219.546	-78.0528	0.0565734	-230.71	-31.0941	52.5961	-243.248	-42.4133	21.6352	-261.944	-61.7014	3.06847	-250.642	-29.6668	70.8046	-265.707	-37.1068	46.7868	-280.435	-53.4798	27.2349	-262.821	-33.0824	100.129	-283.551	-34.5649	79.2678	-298.144	-37.2923	63.2118	-223.158	-20.6186	119.408	-208.756	-9.18751	147.45	-182.515	-20.2258	111.305	
236	1.96667	-152.16	-56.3233	122.871	-151.483	-90.0336	108.059	-162.456	-119.548	89.4785	-183.696	-135.441	78.2424	-195.3	-50.8451	47.3098	-203.878	-62.5308	24.364	-215.59	-84.2076	1.78013	-223.967	-39.0721	56.9471	-242.238	-51.7647	23.8628	-254.745	-71.3847	4.45031	-244.537	-38.9323	73.1135	-265.415	-49.4481	47.2903	-276.447	-68.7346	27.3505	-259.835	-42.306	102.12	-279.995	-46.9124	78.4194	-294.293	-53.3076	59.7764	-218.173	-23.1714	118.747	-209.103	-9.12628	144.428	-183.33	-20.3833	113.948	
237	1.975	-153.93	-49.4518	121.466	-146.098	-82.0522	103.748	-154.651	-108.614	88.1646	-170.346	-128.965	73.9271	-190.094	-43.6266	47.5892	-192.67	-53.7809	24.6509	-203.687	-71.7381	2.39885	-218.493	-34.9898	53.7616	-231.246	-45.912	23.1384	-247.165	-66.781	0.253268	-241.653	-39.0982	72.8194	-255.676	-47.8305	48.3255	-263.979	-66.754	24.9196	-253.049	-47.0641	95.6692	-272.072	-51.797	81.2208	-290.476	-59.829	58.6469	-220.125	-24.98	120.754	-207.773	-10.555	144.369	-183.73	-15.4672	117.946	
238	1.98333	-145.34	-44.195	122.924	-139.142	-73.7982	104.548	-145.439	-101.698	79.1835	-163.395	-116.706	65.1527	-181.715	-29.608	51.58	-185.798	-37.5921	20.1005	-190.067	-51.1426	-3.64043	-214.157	-22.6724	55.1833	-228.975	-30.0455	23.761	-236.986	-47.6601	-4.69847	-235.903	-30.1647	69.2779	-248.655	-35.9205	46.8907	-258.205	-52.4023	21.0799	-251.85	-40.9553	95.8078	-268.504	-45.6929	74.4994	-284.544	-51.3891	56.5146	-213.335	-20.9837	122.188	-208.416	-9.81757	148.044	-176.795	-12.794	123.724	
239	1.99167	-143.163	-41.859	124.145	-140.981	-69.2453	100.93	-146.202	-93.3379	74.3088	-162.426	-109.301	54.8934	-181.202	-18.4195	53.4259	-179.018	-21.4335	23.68	-186.948	-31.9977	-4.91194	-210.63	-10.8278	57.6248	-224.594	-14.1739	25.736	-233.892	-29.0431	-5.51956	-233.644	-19.4823	72.8316	-246.451	-22.6385	43.7153	-255.986	-35.0591	20.7948	-244.594	-33.6913	96.5985	-268.463	-34.7797	72.3146	-280.24	-37.7849	55.5202	-214.362	-16.6552	121.405	-204.576	-8.23986	154.452	-175.752	-7.7862	124.556	
240	2	-143.822	-40.9296	121.812	-137.385	-67.2539	102.147	-143.621	-90.7315	73.5121	-163.386	-103.292	57.4831	-179.987	-14.6839	53.8398	-181.769	-17.1378	21.312	-184.127	-25.7755	-1.65077	-212.262	-6.18117	56.1991	-221.256	-7.80531	28.4938	-231.086	-22.8167	-6.08642	-229.759	-14.3	71.0978	-244.725	-17.0674	45.8542	-256.473	-30.1435	17.684	-250.369	-28.3435	96.2004	-267.957	-31.301	75.8666	-281.308	-34.0586	54.6098	-213.037	-11.8936	124.402	-200.562	-7.8801	152.251	-172.966	-4.88373	124.554	
241	2.00833	-143.002	-37.9737	128.05	-134.429	-67.5211	104.953	-140.222	-92.8068	76.3988	-156.47	-107.275	65.3405	-176.268	-20.5935	53.6582	-177.957	-25.3431	25.1147	-184.867	-37.9631	-0.493889	-206.556	-11.8503	57.54	-217.195	-16.6518	24.8073	-228.888	-33.3005	-3.0553	-229.873	-18.6431	71.8657	-247.281	-24.7971	44.1553	-253.097	-41.4987	18.1529	-248.066	-32.6151	97.934	-267.118	-37.3357	75.3397	-282.074	-43.3547	57.9199	-210.775	-11.6445	124.103	-200.858	-5.54329	153.388	-175.41	-6.35688	121.439	
242	2.01667	-137.203	-38.51	128.763	-132.466	-68.0616	110.892	-130.974	-97.5488	89.5458	-146.833	-117.661	73.3435	-171.629	-32.9535	51.0656	-175.406	-42.7421	24.2596	-180.746	-59.3154	0.889276	-205.343	-25.1763	55.1227	-212.696	-35.6209	22.5344	-224.854	-54.3371	0.647764	-229.47	-30.3172	72.849	-237.757	-41.3358	43.7541	-249.153	-62.1234	20.8123	-242.847	-40.0588	96.576	-258.855	-48.3116	74.9525	-276.809	-59.5606	56.6856	-205.171	-16.1731	120.336	-197.176	-4.86654	150.64	-170.223	-7.43375	119.004	
243	2.025	-134.711	-36.0152	132.27	-121.294	-66.7861	119.204	-121.634	-97.1743	100.362	-132.383	-119.267	87.2271	-167.386	-41.3472	53.9209	-167.785	-53.898	28.4969	-167.019	-73.3596	4.59759	-197.643	-38.1621	54.2343	-207.26	-51.8816	25.0386	-215.381	-76.2356	2.67478	-220.572	-44.3955	73.2651	-227.322	-56.1098	46.0116	-235.455	-82.9634	22.3579	-236.631	-52.5947	94.0127	-252.175	-64.3317	74.9177	-262.059	-80.2008	56.7644	-203.739	-23.7636	115.672	-196.896	-6.24444	144.963	-172.52	-9.64321	120.73	
244	2.03333	-133.071	-33.2753	133.686	-112.128	-59.6114	123.724	-107.674	-89.2333	106.639	-115.743	-115.785	89.7898	-158.426	-41.787	57.836	-156.866	-53.4094	30.9429	-149.689	-73.3541	7.86501	-189.981	-43.0417	54.052	-197.825	-60.202	26.4988	-199.238	-85.2689	3.19084	-210.28	-53.4112	68.8733	-216.466	-70.9784	41.2573	-219.791	-95.1286	22.3986	-227.312	-63.2051	94.5262	-240.661	-77.8393	74.9801	-247.065	-96.413	54.4535	-204.419	-29.0471	119.137	-200.594	-11.2279	142.316	-166.276	-10.3738	121.903	
